# xmcd CD database file
#
# Track frame offsets:
#	150
#	21602
#	40439
#	94421
#	105794
#	128824
#	184108
#	204591
#
# Disc length: 2986 seconds
#
# Revision: 0
# Processed by: cddbd v1.5.2PL0 Copyright (c) Steve Scherf et al.
# Submitted via: CDex 1.70beta2
#
DISCID=6c0ba808
DTITLE=Stevie Ray Vaughn - Somewhwew Over the Rainbow
DYEAR=1988
DGENRE=Blues
TTITLE0=Shuffle
TTITLE1=Testify
TTITLE2=Voodoo Chile
TTITLE3=Honey Bee
TTITLE4=Couldn't Stand The Weather
TTITLE5=Cold Shot
TTITLE6=Texas Flood
TTITLE7=Pride Mood
EXTD=YEAR: 1988
EXTT0=
EXTT1=
EXTT2=
EXTT3=
EXTT4=
EXTT5=
EXTT6=
EXTT7=
PLAYORDER=
